<?xml version="1.0" encoding="iso-8859-1"?>
<!-- Generator: Adobe Illustrator 19.0.0, SVG Export Plug-In . SVG Version: 6.00 Build 0)  -->
<svg version="1.1" id="Capa_1" xmlns="http://www.w3.org/2000/svg" xmlns:xlink="http://www.w3.org/1999/xlink" x="0px" y="0px"
	 viewBox="0 0 512 512" style="enable-background:new 0 0 512 512;" xml:space="preserve">
<polygon style="fill:#FE8100;" points="256,0 235.984,251.723 256,512 474.631,394.672 474.631,0 "/>
<polygon style="fill:#FFB742;" points="37.369,0 37.369,395.766 256,512 256,0 "/>
<polygon style="fill:#80C9FF;" points="410.632,63.999 256,63.999 235.984,245.67 256,439.368 410.632,356.385 "/>
<polygon style="fill:#CCF0FF;" points="101.368,63.999 101.368,357.309 255.859,439.444 256,439.368 256,63.999 "/>
<path style="fill:#266CB2;" d="M256,112.999l-10.008,15.33L256,142.999c18.158,0,32.932,14.773,32.932,32.932v57.485h30v-57.485
	C318.932,141.23,290.7,112.999,256,112.999z"/>
<path style="fill:#5DACFF;" d="M193.068,175.931v57.485h30v-57.485c0-18.158,14.773-32.932,32.932-32.932v-30
	C221.3,112.999,193.068,141.23,193.068,175.931z"/>
<polygon style="fill:#FE8100;" points="335.958,213.399 256,213.399 235.984,265.169 256,316.938 335.958,316.938 "/>
<rect x="176.04" y="213.4" style="fill:#FFB742;" width="79.958" height="103.54"/>
<g>
</g>
<g>
</g>
<g>
</g>
<g>
</g>
<g>
</g>
<g>
</g>
<g>
</g>
<g>
</g>
<g>
</g>
<g>
</g>
<g>
</g>
<g>
</g>
<g>
</g>
<g>
</g>
<g>
</g>
</svg>
